<svg width="0" height="0" class="hidden">
  <symbol xmlns="http://www.w3.org/2000/svg" viewBox="0 0 14 22" id="notification">
    <path d="M7.15385 3.55646C9.76923 3.55646 11.9231 5.71027 11.9231 8.32565C11.9231 9.17181 11.6923 10.0179 11.2308 10.7872L11 11.2488L11.4615 12.7102C11.6154 13.2487 12 13.6334 12.5385 13.9411C13 14.1718 13.3077 14.6335 13.3077 15.1719V15.4795C13.3077 16.0949 12.7692 16.6334 12.1538 16.6334H2.15385C1.53846 16.6334 1 16.0949 1 15.4795V15.1719C1 14.6335 1.30769 14.1718 1.76923 13.9411C2.23077 13.7103 2.61539 13.2487 2.84616 12.7102L3.30769 11.2488L3.07692 10.7872C1.69231 8.55638 2.46154 5.55638 4.69231 4.24869C5.46154 3.78715 6.30769 3.55646 7.15385 3.55646Z" stroke="#858585" stroke-linecap="round" stroke-linejoin="round"/>
    <path d="M7.1537 21.2487C8.00337 21.2487 8.69216 20.5599 8.69216 19.7103C8.69216 18.8606 8.00337 18.1718 7.1537 18.1718C6.30403 18.1718 5.61523 18.8606 5.61523 19.7103C5.61523 20.5599 6.30403 21.2487 7.1537 21.2487Z" stroke-linecap="round" stroke-linejoin="round"/>
    <path d="M5.61523 3.5572V2.78797C5.61523 1.94182 6.30754 1.24951 7.1537 1.24951C7.99985 1.24951 8.69216 1.94182 8.69216 2.78797V3.5572" stroke-linecap="round" stroke-linejoin="round"/>
  </symbol>
  <symbol xmlns="http://www.w3.org/2000/svg" viewBox="0 0 16 15" id="loupe">
    <path fill-rule="evenodd" clip-rule="evenodd" d="M6.80357 12.1429C10.0088 12.1429 12.6071 9.64844 12.6071 6.57143C12.6071 3.49441 10.0088 1 6.80357 1C3.59835 1 1 3.49441 1 6.57143C1 9.64844 3.59835 12.1429 6.80357 12.1429Z"/>
    <path d="M11.3174 10.9048L14.5416 14" stroke-linecap="square"/>
  </symbol>
  <symbol xmlns="http://www.w3.org/2000/svg" viewBox="0 0 17 12" id="view">
    <path d="M8.5 11C11.25 11 16 6.25 16 6C16 5.75 11.25 1 8.5 1C5.75 1 1 5.875 1 6C1 6.125 5.75 11 8.5 11Z" stroke-linecap="round" stroke-linejoin="round"/>
    <path d="M8.5 7.25C9.88071 7.25 11 6.13071 11 4.75C11 3.36929 9.88071 2.25 8.5 2.25C7.11929 2.25 6 3.36929 6 4.75C6 6.13071 7.11929 7.25 8.5 7.25Z" stroke-linecap="round" stroke-linejoin="round"/>
  </symbol>
  <symbol xmlns="http://www.w3.org/2000/svg" viewBox="0 0 16 17" id="user">
    <path d="M8.05833 9.10833C9.98333 9.10833 11.6167 6.54167 11.6167 4.55833C11.6167 2.575 9.98333 1 8.05833 1C6.075 1 4.5 2.575 4.5 4.55833C4.5 6.54167 6.075 9.10833 8.05833 9.10833Z" stroke-linecap="round" stroke-linejoin="round"/>
    <path d="M9.75 8.58337L10.9167 10.3334C12.8417 10.3334 14.4167 11.9084 14.4167 13.8334L15 15.5834H1L1.58333 13.8334C1.58333 11.9084 3.15833 10.3334 5.08333 10.3334L6.25 8.58337" stroke-linecap="round" stroke-linejoin="round"/>
    <path d="M5.08301 10.3334C7.00801 11.9084 8.99134 11.9084 10.9163 10.3334" stroke-linecap="round" stroke-linejoin="round"/>
  </symbol>
</svg>
